<?xml version="1.0" encoding="UTF-8"?>
<svg version="1.1" xmlns="http://www.w3.org/2000/svg" width="43" height="37">
<path d="M0 0 C14.19 0 28.38 0 43 0 C43 12.21 43 24.42 43 37 C28.81 37 14.62 37 0 37 C0 24.79 0 12.58 0 0 Z " fill="#10A5E9" transform="translate(0,0)"/>
<path d="M0 0 C0.89009766 -0.00128906 1.78019531 -0.00257812 2.69726562 -0.00390625 C3.63376953 -0.00003906 4.57027344 0.00382813 5.53515625 0.0078125 C6.46779297 0.00394531 7.40042969 0.00007812 8.36132812 -0.00390625 C9.25271484 -0.00261719 10.14410156 -0.00132813 11.0625 0 C11.88355225 0.00112793 12.70460449 0.00225586 13.55053711 0.00341797 C15.59765625 0.1328125 15.59765625 0.1328125 17.59765625 1.1328125 C17.59765625 2.7828125 17.59765625 4.4328125 17.59765625 6.1328125 C16.60765625 6.4628125 15.61765625 6.7928125 14.59765625 7.1328125 C14.92765625 8.1228125 15.25765625 9.1128125 15.59765625 10.1328125 C16.25765625 10.4628125 16.91765625 10.7928125 17.59765625 11.1328125 C17.64037725 12.79893155 17.63829457 14.46664135 17.59765625 16.1328125 C15.9756511 17.75481765 14.17742594 17.26272 11.94140625 17.265625 C10.53181641 17.26755859 10.53181641 17.26755859 9.09375 17.26953125 C8.10503906 17.26566406 7.11632812 17.26179688 6.09765625 17.2578125 C5.10894531 17.26167969 4.12023437 17.26554687 3.1015625 17.26953125 C2.16183594 17.26824219 1.22210937 17.26695313 0.25390625 17.265625 C-0.61427734 17.26449707 -1.48246094 17.26336914 -2.37695312 17.26220703 C-4.40234375 17.1328125 -4.40234375 17.1328125 -5.40234375 16.1328125 C-5.44298207 14.46664135 -5.44506475 12.79893155 -5.40234375 11.1328125 C-4.41234375 10.8028125 -3.42234375 10.4728125 -2.40234375 10.1328125 C-2.40234375 9.1428125 -2.40234375 8.1528125 -2.40234375 7.1328125 C-3.39234375 6.8028125 -4.38234375 6.4728125 -5.40234375 6.1328125 C-5.44506475 4.46669345 -5.44298207 2.79898365 -5.40234375 1.1328125 C-3.81821016 -0.45132109 -2.1925659 0.00301621 0 0 Z " fill="#33B3EC" transform="translate(16.40234375,9.8671875)"/>
<path d="M0 0 C0.89009766 -0.00128906 1.78019531 -0.00257812 2.69726562 -0.00390625 C3.63376953 -0.00003906 4.57027344 0.00382813 5.53515625 0.0078125 C6.46779297 0.00394531 7.40042969 0.00007812 8.36132812 -0.00390625 C9.25271484 -0.00261719 10.14410156 -0.00132813 11.0625 0 C11.88355225 0.00112793 12.70460449 0.00225586 13.55053711 0.00341797 C15.59765625 0.1328125 15.59765625 0.1328125 17.59765625 1.1328125 C17.59765625 2.7828125 17.59765625 4.4328125 17.59765625 6.1328125 C16.60765625 6.4628125 15.61765625 6.7928125 14.59765625 7.1328125 C14.92765625 8.1228125 15.25765625 9.1128125 15.59765625 10.1328125 C16.25765625 10.4628125 16.91765625 10.7928125 17.59765625 11.1328125 C17.64037725 12.79893155 17.63829457 14.46664135 17.59765625 16.1328125 C15.9756511 17.75481765 14.17742594 17.26272 11.94140625 17.265625 C10.53181641 17.26755859 10.53181641 17.26755859 9.09375 17.26953125 C8.10503906 17.26566406 7.11632812 17.26179688 6.09765625 17.2578125 C5.10894531 17.26167969 4.12023437 17.26554687 3.1015625 17.26953125 C2.16183594 17.26824219 1.22210937 17.26695313 0.25390625 17.265625 C-0.61427734 17.26449707 -1.48246094 17.26336914 -2.37695312 17.26220703 C-4.40234375 17.1328125 -4.40234375 17.1328125 -5.40234375 16.1328125 C-5.44298207 14.46664135 -5.44506475 12.79893155 -5.40234375 11.1328125 C-4.41234375 10.8028125 -3.42234375 10.4728125 -2.40234375 10.1328125 C-2.40234375 9.1428125 -2.40234375 8.1528125 -2.40234375 7.1328125 C-3.39234375 6.8028125 -4.38234375 6.4728125 -5.40234375 6.1328125 C-5.44506475 4.46669345 -5.44298207 2.79898365 -5.40234375 1.1328125 C-3.81821016 -0.45132109 -2.1925659 0.00301621 0 0 Z M-3.40234375 2.1328125 C-3.40234375 3.1228125 -3.40234375 4.1128125 -3.40234375 5.1328125 C-2.74234375 5.1328125 -2.08234375 5.1328125 -1.40234375 5.1328125 C-1.40234375 7.1128125 -1.40234375 9.0928125 -1.40234375 11.1328125 C-2.39234375 11.6278125 -2.39234375 11.6278125 -3.40234375 12.1328125 C-3.40234375 13.1228125 -3.40234375 14.1128125 -3.40234375 15.1328125 C2.86765625 15.1328125 9.13765625 15.1328125 15.59765625 15.1328125 C15.59765625 14.1428125 15.59765625 13.1528125 15.59765625 12.1328125 C14.93765625 11.8028125 14.27765625 11.4728125 13.59765625 11.1328125 C13.59765625 9.4828125 13.59765625 7.8328125 13.59765625 6.1328125 C14.25765625 5.8028125 14.91765625 5.4728125 15.59765625 5.1328125 C15.59765625 4.1428125 15.59765625 3.1528125 15.59765625 2.1328125 C9.32765625 2.1328125 3.05765625 2.1328125 -3.40234375 2.1328125 Z " fill="#EAF7FD" transform="translate(16.40234375,9.8671875)"/>
<path d="M0 0 C2.31 0 4.62 0 7 0 C6.34950684 0.69150146 5.69901367 1.38300293 5.02880859 2.09545898 C2.61184561 5.5557007 2.50846336 7.29707407 2.5390625 11.47265625 C2.54292969 12.70177734 2.54679688 13.93089844 2.55078125 15.19726562 C2.57527344 16.47279297 2.59976562 17.74832031 2.625 19.0625 C2.62628906 20.34189453 2.62757812 21.62128906 2.62890625 22.93945312 C2.46767355 30.28701153 2.46767355 30.28701153 5 37 C3.35 37 1.7 37 0 37 C0 24.79 0 12.58 0 0 Z " fill="#F2F3F3" transform="translate(0,0)"/>
<path d="M0 0 C0.94875 0.04125 1.8975 0.0825 2.875 0.125 C2.875 0.785 2.875 1.445 2.875 2.125 C1.885 2.62 1.885 2.62 0.875 3.125 C0.875 4.775 0.875 6.425 0.875 8.125 C1.535 8.455 2.195 8.785 2.875 9.125 C2.875 10.115 2.875 11.105 2.875 12.125 C0.235 12.125 -2.405 12.125 -5.125 12.125 C-5.17895478 10.50036158 -5.21777195 8.87521459 -5.25 7.25 C-5.27320312 6.34507813 -5.29640625 5.44015625 -5.3203125 4.5078125 C-5.00242565 0.62959295 -3.76234891 0.15049396 0 0 Z " fill="#1FABEA" transform="translate(29.125,12.875)"/>
<path d="M0 0 C1.98 0 3.96 0 6 0 C6 12.21 6 24.42 6 37 C4.68 36.67 3.36 36.34 2 36 C2.66 35.01 3.32 34.02 4 33 C4.29324628 30.0428278 4.29324628 30.0428278 4.23046875 26.6875 C4.22853516 25.44742187 4.22660156 24.20734375 4.22460938 22.9296875 C4.21236328 21.63289063 4.20011719 20.33609375 4.1875 19 C4.18685547 17.70320313 4.18621094 16.40640625 4.18554688 15.0703125 C4.30533319 8.42981694 4.30533319 8.42981694 3 2 C2.01 1.67 1.02 1.34 0 1 C0 0.67 0 0.34 0 0 Z " fill="#EFF3F5" transform="translate(37,0)"/>
<path d="M0 0 C2.31 0 4.62 0 7 0 C6.0409375 1.0209375 6.0409375 1.0209375 5.0625 2.0625 C2.6706492 5.46907538 2.47018773 7.92503964 2 12 C1.01 12.495 1.01 12.495 0 13 C0 8.71 0 4.42 0 0 Z " fill="#F6F9FB" transform="translate(0,0)"/>
</svg>
